<svg xmlns="http://www.w3.org/2000/svg" xmlns:xlink="http://www.w3.org/1999/xlink" id="lewagon-logo" width="154" height="48" aria-labelledby="lewagon-logo-title" class="logo" role="img" version="1.1" viewBox="0 0 154 48"><title id="lewagon-logo-title">Le Wagon Coding Bootcamp logo</title><g><ellipse cx="24.026" cy="24" fill="#FD1015" rx="24.026" ry="24"/><g fill="#FFF"><path d="M1.45600601,16.524475 C1.43540836,16.6639995 1.3150454,16.7710843 1.169644,16.7710843 C1.16570875,16.7710843 1.16179183,16.7710059 1.15789474,16.7708505 L0.289473684,16.7710843 C0.129601783,16.7710843 1.95786612e-17,16.6416245 0,16.4819277 L0,15.9036145 C-1.95786612e-17,15.7439177 0.129601783,15.6144578 0.289473684,15.6144578 L0.289472979,11.8554217 C0.289473684,11.6957249 0.419075467,11.5662651 0.578947368,11.5662651 L22.8715164,11.5662651 C24.4187065,11.5662651 25.8083015,12.2402709 26.7620909,13.3103769 C26.8339492,13.3909985 26.9243094,13.5037059 27.0331716,13.6484992 C27.142525,13.7939457 27.3140109,13.8795248 27.4961077,13.8795181 L27.8006046,13.8795181 C28.0149943,13.8795181 28.3013894,13.8795191 28.6597897,13.8795211 C28.978662,13.8805417 29.2368421,14.1390689 29.2368421,14.4578313 L29.2368421,16.1927711 C29.2368421,16.5121647 28.9776385,16.7710843 28.6578947,16.7710843 L26.6315789,16.7710843 C26.6277256,16.7710077 26.6238528,16.7710843 26.6199622,16.7710843 C26.4600903,16.7710843 26.3304885,16.6416245 26.3304885,16.4819277 C26.1831192,14.7008586 24.6894027,13.3012048 22.8684211,13.3012048 C21.0474394,13.3012048 19.5537229,14.7008586 19.4066266,16.4819277 C19.4065524,16.6416245 19.2769506,16.7710843 19.1170787,16.7710843 C19.1131211,16.7710843 19.1091821,16.771005 19.1052632,16.7708478 L8.68421053,16.7710843 C8.52433863,16.7710843 8.39473684,16.6416245 8.39473684,16.4819277 L8.38284706,16.4819277 C8.23575075,14.7008586 6.74203425,13.3012048 4.92105263,13.3012048 C3.10007101,13.3012048 1.60635451,14.7008586 1.4592582,16.4819277 C1.45911769,16.4825185 1.45911591,16.4831089 1.45911237,16.4836989 C1.4579986,16.497269 1.45696299,16.5108611 1.45600601,16.524475 Z M28.6578947,12.4337349 C28.6578947,12.5934317 28.528293,12.7228916 28.3684211,12.7228916 L27.9132794,12.7228916 C27.8306391,12.7228916 27.7519387,12.6876108 27.6970147,12.6259309 C27.5071076,12.4127218 27.3567657,12.2537574 27.2459891,12.1490378 C26.1054401,11.0708514 24.5657802,10.4096386 22.8715164,10.4096386 L0.578947368,10.4096386 C0.419075467,10.4096386 0.289473684,10.2801787 0.289473684,10.1204819 L0.289471393,3.39356387 C0.289472484,2.09588342 1.24653211,0.996507948 2.53305591,0.816355796 C6.41962679,0.272118599 10.0786071,-5.43119854e-14 13.5099969,-5.68e-14 C19.6365774,-6.01587591e-14 22.0186022,0.487113276 24.3157895,1.73493976 C25.714629,2.49478594 27.0433119,4.32971713 28.3018381,7.23973333 C28.5367251,7.7828473 28.6578947,8.36822082 28.6578947,8.95984898 L28.6578947,12.4337349 Z M0.289472763,10.6987952 L0.289473684,10.6987952 L0.289473684,11.2771084 L0.289472871,11.2771084 L0.289472763,10.6987952 Z M2.02631579,3.18072289 C1.86644389,3.18072289 1.73684211,3.31018272 1.73684211,3.46987952 L1.73684211,7.80722892 C1.73684211,7.96692571 1.86644389,8.09638554 2.02631579,8.09638554 L6.36842105,8.09638554 C6.52829295,8.09638554 6.65789474,7.96692571 6.65789474,7.80722892 L6.65789474,3.46987952 C6.65789474,3.31018272 6.52829295,3.18072289 6.36842105,3.18072289 L2.02631579,3.18072289 Z M14.1842105,3.18072289 C14.0243386,3.18072289 13.8947368,3.31018272 13.8947368,3.46987952 L13.8947368,7.80722892 C13.8947368,7.96692571 14.0243386,8.09638554 14.1842105,8.09638554 L18.5263158,8.09638554 C18.6861877,8.09638554 18.8157895,7.96692571 18.8157895,7.80722892 L18.8157895,3.46987952 C18.8157895,3.31018272 18.6861877,3.18072289 18.5263158,3.18072289 L14.1842105,3.18072289 Z M8.10526316,3.18072289 C7.94539126,3.18072289 7.81578947,3.31018272 7.81578947,3.46987952 L7.81578947,7.80722892 C7.81578947,7.96692571 7.94539126,8.09638554 8.10526316,8.09638554 L12.4473684,8.09638554 C12.6072403,8.09638554 12.7368421,7.96692571 12.7368421,7.80722892 L12.7368421,3.46987952 C12.7368421,3.31018272 12.6072403,3.18072289 12.4473684,3.18072289 L8.10526316,3.18072289 Z M20.2631527,3.18072265 C20.1032808,3.18072265 19.973679,3.31018249 19.973679,3.46987928 L19.9736792,7.80722892 C19.9736792,7.96692571 20.1032809,8.09638554 20.2631528,8.09638554 L26.9384345,8.09638554 C26.9739059,8.09638554 27.0090751,8.08987312 27.0421895,8.07717285 C27.1914344,8.01993335 27.2659687,7.85267713 27.2086665,7.70359562 C26.8914163,6.87819361 26.5247263,6.11905253 26.108604,5.42616952 C26.0460592,5.32202651 25.9885531,5.21877757 25.9360893,5.11642087 C25.3270091,3.92820949 24.1031492,3.18072469 22.7667649,3.18072403 L20.2631528,3.1807228 Z M4.92105263,19.0843373 C3.64207742,19.0843373 2.60526316,18.0486587 2.60526316,16.7710843 C2.60526316,15.49351 3.64207742,14.4578313 4.92105263,14.4578313 C6.20002784,14.4578313 7.23684211,15.49351 7.23684211,16.7710843 C7.23684211,18.0486587 6.20002784,19.0843373 4.92105263,19.0843373 Z M4.92105263,17.9277108 C5.56054024,17.9277108 6.07894737,17.4098715 6.07894737,16.7710843 C6.07894737,16.1322972 5.56054024,15.6144578 4.92105263,15.6144578 C4.28156503,15.6144578 3.76315789,16.1322972 3.76315789,16.7710843 C3.76315789,17.4098715 4.28156503,17.9277108 4.92105263,17.9277108 Z M22.8684211,19.0843373 C21.5894458,19.0843373 20.5526316,18.0486587 20.5526316,16.7710843 C20.5526316,15.49351 21.5894458,14.4578313 22.8684211,14.4578313 C24.1473963,14.4578313 25.1842105,15.49351 25.1842105,16.7710843 C25.1842105,18.0486587 24.1473963,19.0843373 22.8684211,19.0843373 Z M22.8684211,17.9277108 C23.5079087,17.9277108 24.0263158,17.4098715 24.0263158,16.7710843 C24.0263158,16.1322972 23.5079087,15.6144578 22.8684211,15.6144578 C22.2289334,15.6144578 21.7105263,16.1322972 21.7105263,16.7710843 C21.7105263,17.4098715 22.2289334,17.9277108 22.8684211,17.9277108 Z" transform="translate(9.842105, 13.590361)"/></g><path fill="#0E0000" d="M63.1073461,23.1063536 L69.4002757,23.1063536 C68.8585598,21.9093111 67.6534729,21.0764532 66.2538105,21.0764532 C64.8541482,21.0764532 63.6490612,21.9093112 63.1073461,23.1063536 Z M72.6080368,25.7452242 C72.5378225,25.8665719 72.4065867,25.9482142 72.2562774,25.9482142 L63.1073454,25.9482142 C63.6490613,27.1452567 64.8541482,27.9781147 66.2538105,27.9781147 C66.9255167,27.9781147 67.5524103,27.7862994 68.0826767,27.45447 C68.2007867,27.3805593 68.349868,27.2652219 68.5299207,27.1084577 C68.6732683,26.9836474 68.8666802,26.9328978 69.0528614,26.97124 L71.4341639,27.461649 C71.6538256,27.5068861 71.7952149,27.7215824 71.7499659,27.9411865 C71.7399985,27.9895609 71.7212853,28.0357109 71.6947459,28.0773691 C71.670434,28.115531 71.6479629,28.149749 71.6273328,28.1800232 C71.0376866,29.0453141 70.2443944,29.7607957 69.316391,30.2575514 C68.4039255,30.7459898 67.3612221,31.0229653 66.2538105,31.0229653 C62.665404,31.0229653 59.7564257,28.1147497 59.7564257,24.5272839 C59.7564257,20.9398182 62.665404,18.0316026 66.2538105,18.0316026 C69.8422171,18.0316026 72.7511954,20.9398182 72.7511954,24.5272839 C72.7511954,24.9435711 72.7120256,25.3507121 72.6371697,25.7452242 L72.6080368,25.7452242 Z M55.2894737,30.1963937 L55.2894737,13.3156444 C55.2894737,13.11597 55.4300197,12.9438174 55.6258269,12.9036506 L57.8293707,12.4516284 C58.0571581,12.4049015 58.2797375,12.5514777 58.3265157,12.7790156 C58.332239,12.8068549 58.3351228,12.835202 58.3351228,12.8636222 L58.3351228,30.1963937 C58.3351228,30.42868 58.1466111,30.6169852 57.9140702,30.6169852 L55.7105263,30.6169852 C55.4779854,30.6169852 55.2894737,30.42868 55.2894737,30.1963937 Z M85.5546925,30.6169852 L83.109757,30.6169852 C82.9297209,30.6169852 82.7696046,30.5026434 82.711353,30.3324782 L78.8300136,18.9942586 C78.7547738,18.7744671 78.8721515,18.5353639 79.0921839,18.4602065 C79.136039,18.4452268 79.1820693,18.4375827 79.2284175,18.4375827 L81.384089,18.4375827 C81.564125,18.4375827 81.7242413,18.5519244 81.7824929,18.7220897 L84.1330228,25.5884883 C84.1706426,25.698384 84.2903254,25.7570086 84.4003416,25.7194299 C84.4619586,25.6983831 84.5103569,25.6500378 84.5314267,25.5884883 L86.8819566,18.7220897 C86.9402081,18.5519244 87.1003244,18.4375827 87.2803605,18.4375827 L89.724757,18.4375827 C89.904793,18.4375827 90.0649094,18.5519244 90.1231609,18.7220897 L92.4736908,25.5884883 C92.5113107,25.698384 92.6309934,25.7570086 92.7410096,25.7194299 C92.8026266,25.6983831 92.8510249,25.6500378 92.8720947,25.5884883 L95.2226246,18.7220897 C95.2808761,18.5519244 95.4409925,18.4375827 95.6210285,18.4375827 L97.7766999,18.4375827 C98.0092409,18.4375827 98.1977526,18.6258879 98.1977526,18.8581741 C98.1977526,18.9044716 98.1901001,18.9504515 98.1751039,18.9942586 L94.2937645,30.3324782 C94.2355129,30.5026434 94.0753966,30.6169852 93.8953605,30.6169852 L91.450425,30.6169852 C91.2703889,30.6169852 91.1102726,30.5026434 91.052021,30.3324782 L88.7017607,23.4668669 C88.6641408,23.3569712 88.5444581,23.2983467 88.4344419,23.3359254 C88.3728249,23.3569721 88.3244266,23.4053174 88.3033568,23.4668669 L85.9530965,30.3324782 C85.8948449,30.5026434 85.7347286,30.6169852 85.5546925,30.6169852 Z M108.486812,29.8986604 C107.445519,30.6081765 106.187228,31.0229653 104.832033,31.0229653 C101.243626,31.0229653 98.334648,28.1147497 98.334648,24.5272839 C98.334648,20.9398182 101.243626,18.0316026 104.832033,18.0316026 C106.187228,18.0316026 107.445519,18.4463914 108.486812,19.1559074 L108.486812,18.8435628 C108.486812,18.6193461 108.668623,18.4375827 108.892898,18.4375827 L111.126374,18.4375827 C111.35065,18.4375827 111.532461,18.6193461 111.532461,18.8435628 L111.532461,30.2110051 C111.532461,30.4352217 111.35065,30.6169852 111.126374,30.6169852 L108.892898,30.6169852 C108.668623,30.6169852 108.486812,30.4352217 108.486812,30.2110051 L108.486812,29.8986604 Z M105.035076,27.9781147 C106.941417,27.9781147 108.486812,26.4331251 108.486812,24.5272839 C108.486812,22.6214428 106.941417,21.0764532 105.035076,21.0764532 C103.128735,21.0764532 101.58334,22.6214428 101.58334,24.5272839 C101.58334,26.4331251 103.128735,27.9781147 105.035076,27.9781147 Z M123.105928,19.1559074 L123.105928,18.8435628 C123.105928,18.6193461 123.287739,18.4375827 123.512014,18.4375827 L125.74549,18.4375827 C125.969766,18.4375827 126.151577,18.6193461 126.151577,18.8435628 L126.151577,30.2110051 L126.150812,30.2110051 C126.096553,33.8077242 123.163245,36.7066865 119.55267,36.7066865 C118.609452,36.7066865 117.712453,36.5088462 116.900929,36.1524092 C116.685727,36.0578885 116.406954,35.9050473 116.06461,35.6938856 C115.822105,35.5443069 115.71573,35.2466413 115.808526,34.9772998 L116.528537,32.88746 C116.601576,32.6754659 116.832685,32.5628045 117.044735,32.6358236 C117.09747,32.6539831 117.145899,32.6828087 117.187001,32.7205034 C117.455233,32.9665 117.687361,33.1417397 117.883386,33.2462225 C118.381064,33.5114883 118.949305,33.6618358 119.55267,33.6618358 C121.481126,33.6618358 123.050766,32.125965 123.104505,30.2110051 L123.105928,30.2110051 L123.105928,29.8986604 C122.064635,30.6081765 120.806344,31.0229653 119.451149,31.0229653 C115.862742,31.0229653 112.953764,28.1147497 112.953764,24.5272839 C112.953764,20.9398182 115.862742,18.0316026 119.451149,18.0316026 C120.806344,18.0316026 122.064635,18.4463914 123.105928,19.1559074 Z M119.654192,27.9781147 C121.560533,27.9781147 123.105928,26.4331251 123.105928,24.5272839 C123.105928,22.6214428 121.560533,21.0764532 119.654192,21.0764532 C117.747851,21.0764532 116.202456,22.6214428 116.202456,24.5272839 C116.202456,26.4331251 117.747851,27.9781147 119.654192,27.9781147 Z M134.070264,31.0229653 C130.481858,31.0229653 127.57288,28.1147497 127.57288,24.5272839 C127.57288,20.9398182 130.481858,18.0316026 134.070264,18.0316026 C137.658671,18.0316026 140.567649,20.9398182 140.567649,24.5272839 C140.567649,28.1147497 137.658671,31.0229653 134.070264,31.0229653 Z M134.070264,27.9781147 C135.976605,27.9781147 137.522,26.4331251 137.522,24.5272839 C137.522,22.6214428 135.976605,21.0764532 134.070264,21.0764532 C132.163923,21.0764532 130.618529,22.6214428 130.618529,24.5272839 C130.618529,26.4331251 132.163923,27.9781147 134.070264,27.9781147 Z M153.968505,23.9183138 L153.968505,30.2110051 C153.968505,30.4352217 153.786694,30.6169852 153.562419,30.6169852 L151.1259,30.6169852 C150.901624,30.6169852 150.719813,30.4352217 150.719813,30.2110051 L150.719813,24.1213038 L150.712673,24.1213038 C150.717406,24.0542559 150.719813,23.9865658 150.719813,23.9183138 C150.719813,22.3487975 149.447135,21.0764532 147.877207,21.0764532 C146.307279,21.0764532 145.034601,22.3487975 145.034601,23.9183138 C145.034601,23.9865658 145.037008,24.0542559 145.041741,24.1213038 L145.034601,24.1213038 L145.034601,30.2110051 C145.034601,30.4352217 144.85279,30.6169852 144.628515,30.6169852 L142.395039,30.6169852 C142.170763,30.6169852 141.988952,30.4352217 141.988952,30.2110051 L141.988952,18.8435628 C141.988952,18.6193461 142.170763,18.4375827 142.395039,18.4375827 L144.628515,18.4375827 C144.85279,18.4375827 145.034601,18.6193461 145.034601,18.8435628 L145.034601,18.8792174 C145.923228,18.3412574 146.965568,18.0316026 148.08025,18.0316026 C151.332244,18.0316026 153.968505,20.667173 153.968505,23.9183138 Z"/></g></svg>